# xmcd
#
# Track frame offsets:
#	150
#	17097
#	30619
#	49280
#	62639
#	75465
#	85763
#	102163
#	119545
#	138303
#	149724
#	167424
#	182717
#	194209
#	207485
#	224768
#	243216
#	259144
#	276806
#	289070
#
# Disc length: 4005 seconds
#
# Revision: 1
# Processed by: cddbd v1.5.2PL0 Copyright (c) Steve Scherf et al.
# Submitted via: audiograbber 1.83.01
#
DISCID=350fa314
DTITLE=Lampco Records - Lampco Records 003
DYEAR=2007
DGENRE=Country
TTITLE0=It´s Raining Pain  - Kimberly Glover 
TTITLE1=I´ve Got Lots Of Money - Joe Osgood Jr
TTITLE2=The Letter - Chris Hawins
TTITLE3=My Man  - Linda Ruberg
TTITLE4=No Place Her Memory Won´t Go  - Mark Terry
TTITLE5=Alabama Boogie Man  - Hersel Butts
TTITLE6=Southern Belle  - Dave Mayne
TTITLE7=Pretty Baby  - Sharon Borden
TTITLE8=Big Bottom Mamma  - Don Crouse
TTITLE9=A Man Called Cash - Morton Lohnes
TTITLE10=Outlaw Trail  - Jeff Gates
TTITLE11=Trying To Shake The Bottle  - Don Crouse
TTITLE12=The Sun Still Shine  - Dave O´connor
TTITLE13=Daddy´s Little Girl  - Charles Baker
TTITLE14=I Thought It Was Love  - Joel D Mckissack
TTITLE15=As Long As I´m Still Breating  - Mike Lusk
TTITLE16=The Tenneessee Shuffle  - Mike Lusk
TTITLE17=The Tenneessee Shuffle  - Mike Lusk
TTITLE18=My Heavently Home  - Randy Fowler
TTITLE19=Chris Has Redeemed Me  - Mike Lusk
EXTD=
EXTT0=
EXTT1=
EXTT2=
EXTT3=
EXTT4=
EXTT5=
EXTT6=
EXTT7=
EXTT8=
EXTT9=
EXTT10=
EXTT11=
EXTT12=
EXTT13=
EXTT14=
EXTT15=
EXTT16=
EXTT17=
EXTT18=
EXTT19=
PLAYORDER=
